# xmcd
#
# Track frame offsets: 
#        183
#        22848
#        43993
#        64108
#        80863
#        103005
#        125988
#        145955
#        164845
#        181970
#
# Disc length: 2653 seconds
#
# Revision: 4
# Processed by: cddbd v1.5.2PL0 Copyright (c) Steve Scherf et al.
# Submitted via: ExactAudioCopyFreeDBPlugin 1.0
#
DISCID=970a5b0a
DTITLE=林憶蓮 - 愛上一個不回家的人
DYEAR=1991
DGENRE=Chinese Pop
TTITLE0=愛上一個不回家的人
TTITLE1=你給我的愛不是愛
TTITLE2=是該結束的時候
TTITLE3=哈囉寂寞
TTITLE4=情人的眼淚
TTITLE5=I Still Believe
TTITLE6=走在大街的女子
TTITLE7=夜長夢多
TTITLE8=你是我的男人
TTITLE9=愛傷害了你我
EXTD=
EXTT0=
EXTT1=
EXTT2=
EXTT3=
EXTT4=
EXTT5=
EXTT6=
EXTT7=
EXTT8=
EXTT9=
PLAYORDER=
